<?xml version="1.0" encoding="UTF-8"?><svg xmlns="http://www.w3.org/2000/svg" xmlns:xlink="http://www.w3.org/1999/xlink" viewBox="0 0 373.85 388.64"><defs><style>.cls-1{fill:#fff;}.cls-2{fill:url(#linear-gradient-3);}.cls-2,.cls-3,.cls-4,.cls-5,.cls-6,.cls-7,.cls-8,.cls-9,.cls-10,.cls-11,.cls-12,.cls-13,.cls-14,.cls-15{stroke-miterlimit:10;}.cls-2,.cls-3,.cls-4,.cls-6,.cls-7,.cls-8,.cls-9,.cls-10,.cls-11,.cls-13,.cls-14,.cls-15{stroke:#000;stroke-width:.5px;}.cls-16{font-size:10.82px;}.cls-16,.cls-17,.cls-18,.cls-19,.cls-20,.cls-21{font-family:ArialMT, Arial;}.cls-3{fill:url(#linear-gradient-8);}.cls-4{fill:url(#linear-gradient);}.cls-5{stroke:#440154;}.cls-5,.cls-12{stroke-width:2px;}.cls-5,.cls-12,.cls-15{fill:none;}.cls-6{fill:url(#linear-gradient-5);}.cls-7{fill:#fde725;}.cls-8{fill:url(#linear-gradient-7);}.cls-9{fill:url(#linear-gradient-2);}.cls-17,.cls-22,.cls-23{font-size:12px;}.cls-18,.cls-19,.cls-21{font-size:11px;}.cls-19{letter-spacing:.78em;}.cls-10{fill:#31688e;}.cls-11{fill:url(#linear-gradient-9);}.cls-12{stroke:#35b779;}.cls-13{fill:url(#linear-gradient-4);}.cls-22{letter-spacing:-.04em;}.cls-21{letter-spacing:.44em;}.cls-14{fill:url(#linear-gradient-6);}.cls-24{letter-spacing:-.06em;}.cls-25{font-size:18px;}</style><linearGradient id="linear-gradient" x1="328.6" y1=".25" x2="342.77" y2="14.42" gradientUnits="userSpaceOnUse"><stop offset=".5" stop-color="#31688e"/><stop offset=".5" stop-color="#393f77"/><stop offset=".5" stop-color="#616165"/><stop offset=".5" stop-color="#858056"/><stop offset=".5" stop-color="#a69c49"/><stop offset=".5" stop-color="#c1b43d"/><stop offset=".5" stop-color="#d7c634"/><stop offset=".5" stop-color="#e8d52d"/><stop offset=".5" stop-color="#f4df28"/><stop offset=".5" stop-color="#fbe525"/><stop offset=".5" stop-color="#fde725"/></linearGradient><linearGradient id="linear-gradient-2" x1="314.43" y1="14.42" x2="328.6" y2="28.6" xlink:href="#linear-gradient"/><linearGradient id="linear-gradient-3" x1="286.08" y1="42.77" x2="300.25" y2="56.94" xlink:href="#linear-gradient"/><linearGradient id="linear-gradient-4" x1="271.91" y1="56.94" x2="286.08" y2="71.12" xlink:href="#linear-gradient"/><linearGradient id="linear-gradient-5" x1="215.22" y1="113.64" x2="229.39" y2="127.81" gradientUnits="userSpaceOnUse"><stop offset=".5" stop-color="#31688e"/><stop offset=".5" stop-color="#393f77"/><stop offset=".5" stop-color="#616165"/><stop offset=".5" stop-color="#858056"/><stop offset=".5" stop-color="#a69c49"/><stop offset=".5" stop-color="#c1b43d"/><stop offset=".5" stop-color="#d7c634"/><stop offset=".5" stop-color="#e8d52d"/><stop offset=".5" stop-color="#f4df28"/><stop offset=".5" stop-color="#fbe525"/><stop offset=".5" stop-color="#fde725"/></linearGradient><linearGradient id="linear-gradient-6" x1="300.25" y1="28.6" x2="314.43" y2="42.77" xlink:href="#linear-gradient"/><linearGradient id="linear-gradient-7" x1="257.73" y1="71.12" x2="271.91" y2="85.29" xlink:href="#linear-gradient"/><linearGradient id="linear-gradient-8" x1="243.56" y1="85.29" x2="257.73" y2="99.46" xlink:href="#linear-gradient"/><linearGradient id="linear-gradient-9" x1="229.39" y1="99.46" x2="243.56" y2="113.64" xlink:href="#linear-gradient"/></defs><g id="Box_3"><path id="query" class="cls-12" d="M32.38,359.07c21.62-5.25,31.47-4.13,42.08-1.73,21.71,4.92,26.43,14.25,42.64,12.68,19.81-1.92,27.75-17.31,39.18-12.68"/><path id="reference" class="cls-5" d="M14.49,213.69c-2.03,6.52-14,14-11.81,29.91,1.07,7.75,5.9,9.82,9.22,17.29,9.08,20.39-18.33,44.67-8.07,59.93,2.78,4.13,7.36,6.16,6.91,10.37-.46,4.33-5.86,7.35-10.37,9.22"/><polyline id="Axes" class="cls-15" points="155.43 340.89 28.47 340.42 28.47 213.19"/><g id="Actual_path"><rect id="T5" class="cls-10" x="99.34" y="255.85" width="14.17" height="14.17"/><rect id="T4" class="cls-10" x="85.17" y="270.02" width="14.17" height="14.17"/><rect id="T7" class="cls-10" x="127.69" y="241.68" width="14.17" height="14.17"/><rect id="T6" class="cls-10" x="113.51" y="255.85" width="14.17" height="14.17"/><rect id="T4-2" class="cls-10" x="70.99" y="270.02" width="14.17" height="14.17"/><rect id="T3" class="cls-10" x="56.82" y="284.19" width="14.17" height="14.17"/><rect id="T2" class="cls-10" x="42.65" y="284.19" width="14.17" height="14.17"/><rect id="T1" class="cls-10" x="28.47" y="298.37" width="14.17" height="14.17"/><rect id="T8" class="cls-10" x="141.86" y="227.5" width="14.17" height="14.17"/></g><g id="Possible_paths"><rect id="T6-2" class="cls-7" x="113.51" y="241.68" width="14.17" height="14.17"/><rect id="T3-2" class="cls-7" x="70.99" y="284.19" width="14.17" height="14.17"/><rect id="T2-2" class="cls-7" x="56.82" y="298.37" width="14.17" height="14.17"/><rect id="T1-2" class="cls-7" x="42.65" y="312.54" width="14.17" height="14.17"/><rect id="T5-2" class="cls-7" x="99.34" y="270.02" width="14.17" height="14.17"/><rect id="T4-3" class="cls-7" x="85.17" y="284.19" width="14.17" height="14.17"/><rect id="T3-3" class="cls-7" x="70.99" y="298.37" width="14.17" height="14.17"/><rect id="T2-3" class="cls-7" x="56.82" y="312.54" width="14.17" height="14.17"/><rect id="T1-3" class="cls-7" x="42.65" y="326.71" width="14.17" height="14.17"/><rect id="T7-2" class="cls-7" x="141.86" y="241.68" width="14.17" height="14.17"/><rect id="T6-3" class="cls-7" x="127.69" y="255.85" width="14.17" height="14.17"/><rect id="T5-3" class="cls-7" x="113.51" y="270.02" width="14.17" height="14.17"/><rect id="T4-4" class="cls-7" x="99.34" y="284.19" width="14.17" height="14.17"/><rect id="T3-4" class="cls-7" x="85.17" y="298.37" width="14.17" height="14.17"/><rect id="T2-4" class="cls-7" x="70.99" y="312.54" width="14.17" height="14.17"/><rect id="T1-4" class="cls-7" x="56.82" y="326.71" width="14.17" height="14.17"/><rect id="T6-4" class="cls-7" x="141.86" y="255.85" width="14.17" height="14.17"/><rect id="T5-4" class="cls-7" x="127.69" y="270.02" width="14.17" height="14.17"/><rect id="T4-5" class="cls-7" x="113.51" y="284.19" width="14.17" height="14.17"/><rect id="T3-5" class="cls-7" x="99.34" y="298.37" width="14.17" height="14.17"/><rect id="T2-5" class="cls-7" x="85.17" y="312.54" width="14.17" height="14.17"/><rect id="T1-5" class="cls-7" x="70.99" y="326.71" width="14.17" height="14.17"/><rect id="T5-5" class="cls-7" x="141.86" y="270.02" width="14.17" height="14.17"/><rect id="T4-6" class="cls-7" x="127.69" y="284.19" width="14.17" height="14.17"/><rect id="T3-6" class="cls-7" x="113.51" y="298.37" width="14.17" height="14.17"/><rect id="T2-6" class="cls-7" x="99.34" y="312.54" width="14.17" height="14.17"/><rect id="T1-6" class="cls-7" x="85.17" y="326.71" width="14.17" height="14.17"/><rect id="T5-6" class="cls-7" x="141.86" y="284.19" width="14.17" height="14.17"/><rect id="T4-7" class="cls-7" x="127.69" y="298.37" width="14.17" height="14.17"/><rect id="T3-7" class="cls-7" x="113.51" y="312.54" width="14.17" height="14.17"/><rect id="T2-7" class="cls-7" x="99.34" y="326.71" width="14.17" height="14.17"/><rect id="T4-8" class="cls-7" x="141.86" y="298.37" width="14.17" height="14.17"/><rect id="T3-8" class="cls-7" x="127.69" y="312.54" width="14.17" height="14.17"/><rect id="T2-8" class="cls-7" x="113.51" y="326.71" width="14.17" height="14.17"/><rect id="T4-9" class="cls-7" x="56.82" y="213.33" width="14.17" height="14.17"/><rect id="T3-9" class="cls-7" x="42.65" y="227.5" width="14.17" height="14.17"/><rect id="T2-9" class="cls-7" x="28.47" y="241.68" width="14.17" height="14.17"/><rect id="T4-10" class="cls-7" x="141.86" y="312.54" width="14.17" height="14.17"/><rect id="T3-10" class="cls-7" x="127.69" y="326.71" width="14.17" height="14.17"/><rect id="T4-11" class="cls-7" x="42.65" y="213.33" width="14.17" height="14.17"/><rect id="T3-11" class="cls-7" x="28.47" y="227.5" width="14.17" height="14.17"/><rect id="T3-12" class="cls-7" x="141.86" y="326.71" width="14.17" height="14.17"/><rect id="T3-13" class="cls-7" x="28.47" y="213.33" width="14.17" height="14.17"/><rect id="T8-2" class="cls-7" x="127.69" y="213.33" width="14.17" height="14.17"/><rect id="T7-3" class="cls-7" x="113.51" y="227.5" width="14.17" height="14.17"/><rect id="T6-5" class="cls-7" x="99.34" y="241.68" width="14.17" height="14.17"/><rect id="T5-7" class="cls-7" x="85.17" y="255.85" width="14.17" height="14.17"/><rect id="T2-10" class="cls-7" x="42.65" y="298.37" width="14.17" height="14.17"/><rect id="T7-4" class="cls-7" x="113.51" y="213.33" width="14.17" height="14.17"/><rect id="T6-6" class="cls-7" x="99.34" y="227.5" width="14.17" height="14.17"/><rect id="T5-8" class="cls-7" x="85.17" y="241.68" width="14.17" height="14.17"/><rect id="T4-12" class="cls-7" x="70.99" y="255.85" width="14.17" height="14.17"/><rect id="T3-14" class="cls-7" x="56.82" y="270.02" width="14.17" height="14.17"/><rect id="T6-7" class="cls-7" x="99.34" y="213.33" width="14.17" height="14.17"/><rect id="T5-9" class="cls-7" x="85.17" y="227.5" width="14.17" height="14.17"/><rect id="T4-13" class="cls-7" x="70.99" y="241.68" width="14.17" height="14.17"/><rect id="T3-15" class="cls-7" x="56.82" y="255.85" width="14.17" height="14.17"/><rect id="T2-11" class="cls-7" x="42.65" y="270.02" width="14.17" height="14.17"/><rect id="T1-7" class="cls-7" x="28.47" y="284.19" width="14.17" height="14.17"/><rect id="T5-10" class="cls-7" x="85.17" y="213.33" width="14.17" height="14.17"/><rect id="T4-14" class="cls-7" x="70.99" y="227.5" width="14.17" height="14.17"/><rect id="T3-16" class="cls-7" x="56.82" y="241.68" width="14.17" height="14.17"/><rect id="T2-12" class="cls-7" x="42.65" y="255.85" width="14.17" height="14.17"/><rect id="T1-8" class="cls-7" x="28.47" y="270.02" width="14.17" height="14.17"/><rect id="T4-15" class="cls-7" x="70.99" y="213.33" width="14.17" height="14.17"/><rect id="T3-17" class="cls-7" x="56.82" y="227.5" width="14.17" height="14.17"/><rect id="T2-13" class="cls-7" x="42.65" y="241.68" width="14.17" height="14.17"/><rect id="T1-9" class="cls-7" x="28.47" y="255.85" width="14.17" height="14.17"/><rect id="T1-10" class="cls-7" x="28.47" y="312.54" width="14.17" height="14.17"/><rect id="T8-3" class="cls-7" x="141.86" y="213.33" width="14.17" height="14.17"/><rect id="T7-5" class="cls-7" x="127.69" y="227.5" width="14.17" height="14.17"/><rect id="T1-11" class="cls-7" x="28.47" y="326.71" width="14.17" height="14.17"/></g><g id="Text"><text class="cls-18" transform="translate(28.52 350.8)"><tspan x="0" y="0">1</tspan></text><text class="cls-21" transform="translate(25.02 335.28) rotate(-90)"><tspan x="0" y="0">1</tspan></text><text class="cls-18" transform="translate(155.94 350.8)"><tspan x="0" y="0">i</tspan></text><text class="cls-19" transform="translate(24.18 220.44) rotate(-90)"><tspan x="0" y="0">j</tspan></text><text class="cls-18" transform="translate(70.34 351.83)"><tspan x="0" y="0">t (query)</tspan></text><text class="cls-17" transform="translate(24.3 298.37) rotate(-90)"><tspan x="0" y="0">t (ref)</tspan></text></g><text class="cls-20" transform="translate(.38 381.42)"><tspan class="cls-25" x="0" y="0">(c) </tspan><tspan class="cls-23" x="25.99" y="0">Open begin/end</tspan></text><text class="cls-20" transform="translate(184.64 382.79)"><tspan class="cls-25" x="0" y="0">(d) </tspan><tspan class="cls-22" x="27" y="0">T</tspan><tspan class="cls-23" x="33.88" y="0">ime window = 1 hr</tspan></text></g><g id="Box_4"><g id="Paths"><g id="Actual"><rect id="T5-11" class="cls-10" x="269.67" y="283.75" width="14.17" height="14.17"/><rect id="T1-12" class="cls-10" x="241.27" y="312.08" width="14.17" height="14.17"/><rect id="T1-13" class="cls-10" x="227.27" y="326.08" width="14.17" height="14.17"/><rect id="T1-14" class="cls-10" x="255.5" y="297.92" width="14.17" height="14.17"/><rect id="T8-4" class="cls-10" x="283.85" y="269.58" width="14.17" height="14.17"/><rect id="T8-5" class="cls-10" x="298.02" y="269.58" width="14.17" height="14.17"/><rect id="T8-6" class="cls-10" x="312.19" y="255.4" width="14.17" height="14.17"/><rect id="T8-7" class="cls-10" x="312.19" y="241.23" width="14.17" height="14.17"/><rect id="T8-8" class="cls-10" x="326.37" y="227.06" width="14.17" height="14.17"/><rect id="T8-9" class="cls-10" x="283.85" y="184.37" width="14.17" height="14.17"/></g><g id="Possible"><rect id="T8-10" class="cls-7" x="283.85" y="297.92" width="14.17" height="14.17"/><rect id="T7-6" class="cls-7" x="283.85" y="312.09" width="14.17" height="14.17"/><rect id="T4-16" class="cls-7" x="269.67" y="312.09" width="14.17" height="14.17"/><rect id="T6-8" class="cls-7" x="283.85" y="326.27" width="14.17" height="14.17"/><rect id="T3-18" class="cls-7" x="269.67" y="326.27" width="14.17" height="14.17"/><rect id="T2-14" class="cls-7" x="255.5" y="312.09" width="14.17" height="14.17"/><rect id="T1-15" class="cls-7" x="255.5" y="326.27" width="14.17" height="14.17"/><rect id="T1-16" class="cls-7" x="241.27" y="326.08" width="14.17" height="14.17"/><rect id="T6-9" class="cls-7" x="269.67" y="297.92" width="14.17" height="14.17"/><rect id="T8-11" class="cls-7" x="283.85" y="283.75" width="14.17" height="14.17"/><rect id="T8-12" class="cls-7" x="298.02" y="283.75" width="14.17" height="14.17"/><rect id="T7-7" class="cls-7" x="298.02" y="297.92" width="14.17" height="14.17"/><rect id="T6-10" class="cls-7" x="298.02" y="312.09" width="14.17" height="14.17"/><rect id="T8-13" class="cls-7" x="298.02" y="255.4" width="14.17" height="14.17"/><rect id="T8-14" class="cls-7" x="312.19" y="269.58" width="14.17" height="14.17"/><rect id="T7-8" class="cls-7" x="312.19" y="283.75" width="14.17" height="14.17"/><rect id="T6-11" class="cls-7" x="312.19" y="297.92" width="14.17" height="14.17"/><rect id="T8-15" class="cls-7" x="326.37" y="255.4" width="14.17" height="14.17"/><rect id="T7-9" class="cls-7" x="326.37" y="269.58" width="14.17" height="14.17"/><rect id="T6-12" class="cls-7" x="326.37" y="283.75" width="14.17" height="14.17"/><rect id="T8-16" class="cls-7" x="326.37" y="241.23" width="14.17" height="14.17"/></g></g><path id="query-2" class="cls-12" d="M212.98,357.66c21.62-5.25,31.47-4.13,42.08-1.73,21.71,4.92,26.43,14.25,42.64,12.68,19.81-1.92,27.75-17.31,39.18-12.68"/><path id="reference-2" class="cls-5" d="M199.37,212.88c-2.03,6.52-14,14-11.81,29.91,1.07,7.75,5.9,9.82,9.22,17.29,9.08,20.39-18.33,44.67-8.07,59.93,2.78,4.13,7.36,6.16,6.91,10.37-.46,4.33-5.86,7.35-10.37,9.22"/><g id="Text-2"><rect class="cls-1" x="172.95" y="255.23" width="42.52" height="14.17"/><rect class="cls-1" x="172.95" y="311.93" width="42.52" height="14.17"/><rect class="cls-1" x="206.25" y="348.78" width="28.35" height="11.34" transform="translate(-134.02 574.87) rotate(-90)"/><rect class="cls-1" x="262.95" y="348.78" width="28.35" height="11.34" transform="translate(-77.33 631.57) rotate(-90)"/><rect class="cls-1" x="321.76" y="347.36" width="28.35" height="14.17" transform="translate(-18.51 690.38) rotate(-90)"/><text class="cls-18" transform="translate(179.35 322.27)"><tspan x="0" y="0">10 am </tspan></text><text class="cls-18" transform="translate(178.78 265.58)"><tspan x="0" y="0" xml:space="preserve">12 pm  </tspan></text><text class="cls-16" transform="translate(223.22 364.9) rotate(-90) scale(1.02 1)"><tspan x="0" y="0">8 am</tspan></text><text class="cls-18" transform="translate(339.02 370.85) rotate(-90)"><tspan x="0" y="0">12 pm</tspan></text><text class="cls-18" transform="translate(279.85 371.01) rotate(-90)"><tspan x="0" y="0">10 am</tspan></text></g><polyline id="Axes-2" class="cls-15" points="339.3 340.41 212.35 339.94 212.35 212.71"/></g><g id="Box_2"><g id="Text-3"><text class="cls-18" transform="translate(257.08 138.75)"><tspan x="0" y="0">t (query)</tspan></text><text class="cls-17" transform="translate(211.04 85.29) rotate(-90)"><tspan x="0" y="0">t (ref)</tspan></text><text class="cls-18" transform="translate(215.26 137.72)"><tspan x="0" y="0">1</tspan></text><text class="cls-21" transform="translate(211.76 122.2) rotate(-90)"><tspan x="0" y="0">1</tspan></text><text class="cls-18" transform="translate(342.68 137.72)"><tspan x="0" y="0">i</tspan></text><text class="cls-19" transform="translate(210.92 7.36) rotate(-90)"><tspan x="0" y="0">j</tspan></text></g><path id="query-3" class="cls-12" d="M219.12,145.99c21.62-5.25,31.47-4.13,42.08-1.73,21.71,4.92,26.43,14.25,42.64,12.68,19.81-1.92,27.75-17.31,39.18-12.68"/><path id="reference-3" class="cls-5" d="M201.23,.62c-2.03,6.52-14,14-11.81,29.91,1.07,7.75,5.9,9.82,9.22,17.29,9.08,20.39-18.33,44.67-8.07,59.93,2.78,4.13,7.36,6.16,6.91,10.37-.46,4.33-5.86,7.35-10.37,9.22"/><polyline id="Axes-3" class="cls-15" points="342.17 127.81 215.22 127.34 215.22 .12"/><g id="Actual_path-2"><rect id="T8-17" class="cls-4" x="328.6" y=".25" width="14.17" height="14.17"/><rect id="T7-10" class="cls-9" x="314.43" y="14.42" width="14.17" height="14.17"/><rect id="T5-12" class="cls-2" x="286.08" y="42.77" width="14.17" height="14.17"/><rect id="T4-17" class="cls-13" x="271.91" y="56.94" width="14.17" height="14.17"/><rect id="T1-17" class="cls-6" x="215.22" y="113.64" width="14.17" height="14.17"/><rect id="T6-13" class="cls-14" x="300.25" y="28.6" width="14.17" height="14.17"/><rect id="T3-19" class="cls-8" x="257.73" y="71.12" width="14.17" height="14.17"/><rect id="T2-15" class="cls-3" x="243.56" y="85.29" width="14.17" height="14.17"/><rect id="T1-18" class="cls-11" x="229.39" y="99.46" width="14.17" height="14.17"/></g><text id="_b_SC_Window_0" class="cls-20" transform="translate(187.4 170.12)"><tspan class="cls-25" x="0" y="0">(b) </tspan><tspan class="cls-23" x="27" y="0">SC Window = 0</tspan></text></g><g id="Box_1"><g id="Possible_Paths"><rect id="T6-14" class="cls-7" x="113.51" y="28.6" width="14.17" height="14.17"/><rect id="T3-20" class="cls-7" x="70.99" y="71.12" width="14.17" height="14.17"/><rect id="T2-16" class="cls-7" x="56.82" y="85.29" width="14.17" height="14.17"/><rect id="T1-19" class="cls-7" x="42.65" y="99.46" width="14.17" height="14.17"/><rect id="T8-18" class="cls-7" x="141.86" y="14.42" width="14.17" height="14.17"/><rect id="T5-13" class="cls-7" x="99.34" y="56.94" width="14.17" height="14.17"/><rect id="T4-18" class="cls-7" x="85.17" y="71.12" width="14.17" height="14.17"/><rect id="T3-21" class="cls-7" x="70.99" y="85.29" width="14.17" height="14.17"/><rect id="T2-17" class="cls-7" x="56.82" y="99.46" width="14.17" height="14.17"/><rect id="T1-20" class="cls-7" x="42.65" y="113.64" width="14.17" height="14.17"/><rect id="T7-11" class="cls-7" x="141.86" y="28.6" width="14.17" height="14.17"/><rect id="T6-15" class="cls-7" x="127.69" y="42.77" width="14.17" height="14.17"/><rect id="T5-14" class="cls-7" x="113.51" y="56.94" width="14.17" height="14.17"/><rect id="T4-19" class="cls-7" x="99.34" y="71.12" width="14.17" height="14.17"/><rect id="T3-22" class="cls-7" x="85.17" y="85.29" width="14.17" height="14.17"/><rect id="T2-18" class="cls-7" x="70.99" y="99.46" width="14.17" height="14.17"/><rect id="T1-21" class="cls-7" x="56.82" y="113.64" width="14.17" height="14.17"/><rect id="T6-16" class="cls-7" x="141.86" y="42.77" width="14.17" height="14.17"/><rect id="T5-15" class="cls-7" x="127.69" y="56.94" width="14.17" height="14.17"/><rect id="T4-20" class="cls-7" x="113.51" y="71.12" width="14.17" height="14.17"/><rect id="T3-23" class="cls-7" x="99.34" y="85.29" width="14.17" height="14.17"/><rect id="T2-19" class="cls-7" x="85.17" y="99.46" width="14.17" height="14.17"/><rect id="T1-22" class="cls-7" x="70.99" y="113.64" width="14.17" height="14.17"/><rect id="T5-16" class="cls-7" x="141.86" y="56.94" width="14.17" height="14.17"/><rect id="T4-21" class="cls-7" x="127.69" y="71.12" width="14.17" height="14.17"/><rect id="T3-24" class="cls-7" x="113.51" y="85.29" width="14.17" height="14.17"/><rect id="T2-20" class="cls-7" x="99.34" y="99.46" width="14.17" height="14.17"/><rect id="T1-23" class="cls-7" x="85.17" y="113.64" width="14.17" height="14.17"/><rect id="T5-17" class="cls-7" x="141.86" y="71.12" width="14.17" height="14.17"/><rect id="T4-22" class="cls-7" x="127.69" y="85.29" width="14.17" height="14.17"/><rect id="T3-25" class="cls-7" x="113.51" y="99.46" width="14.17" height="14.17"/><rect id="T2-21" class="cls-7" x="99.34" y="113.64" width="14.17" height="14.17"/><rect id="T4-23" class="cls-7" x="141.86" y="85.29" width="14.17" height="14.17"/><rect id="T3-26" class="cls-7" x="127.69" y="99.46" width="14.17" height="14.17"/><rect id="T2-22" class="cls-7" x="113.51" y="113.64" width="14.17" height="14.17"/><rect id="T4-24" class="cls-7" x="56.82" y=".25" width="14.17" height="14.17"/><rect id="T3-27" class="cls-7" x="42.65" y="14.42" width="14.17" height="14.17"/><rect id="T2-23" class="cls-7" x="28.47" y="28.6" width="14.17" height="14.17"/><rect id="T4-25" class="cls-7" x="141.86" y="99.46" width="14.17" height="14.17"/><rect id="T3-28" class="cls-7" x="127.69" y="113.64" width="14.17" height="14.17"/><rect id="T4-26" class="cls-7" x="42.65" y=".25" width="14.17" height="14.17"/><rect id="T3-29" class="cls-7" x="28.47" y="14.42" width="14.17" height="14.17"/><rect id="T3-30" class="cls-7" x="141.86" y="113.64" width="14.17" height="14.17"/><rect id="T3-31" class="cls-7" x="28.47" y=".25" width="14.17" height="14.17"/><rect id="T8-19" class="cls-7" x="127.69" y=".25" width="14.17" height="14.17"/><rect id="T7-12" class="cls-7" x="113.51" y="14.42" width="14.17" height="14.17"/><rect id="T6-17" class="cls-7" x="99.34" y="28.6" width="14.17" height="14.17"/><rect id="T5-18" class="cls-7" x="85.17" y="42.77" width="14.17" height="14.17"/><rect id="T2-24" class="cls-7" x="42.65" y="85.29" width="14.17" height="14.17"/><rect id="T7-13" class="cls-7" x="113.51" y=".25" width="14.17" height="14.17"/><rect id="T6-18" class="cls-7" x="99.34" y="14.42" width="14.17" height="14.17"/><rect id="T5-19" class="cls-7" x="85.17" y="28.6" width="14.17" height="14.17"/><rect id="T4-27" class="cls-7" x="70.99" y="42.77" width="14.17" height="14.17"/><rect id="T3-32" class="cls-7" x="56.82" y="56.94" width="14.17" height="14.17"/><rect id="T6-19" class="cls-7" x="99.34" y=".25" width="14.17" height="14.17"/><rect id="T5-20" class="cls-7" x="85.17" y="14.42" width="14.17" height="14.17"/><rect id="T4-28" class="cls-7" x="70.99" y="28.6" width="14.17" height="14.17"/><rect id="T3-33" class="cls-7" x="56.82" y="42.77" width="14.17" height="14.17"/><rect id="T2-25" class="cls-7" x="42.65" y="56.94" width="14.17" height="14.17"/><rect id="T1-24" class="cls-7" x="28.47" y="71.12" width="14.17" height="14.17"/><rect id="T5-21" class="cls-7" x="85.17" y=".25" width="14.17" height="14.17"/><rect id="T4-29" class="cls-7" x="70.99" y="14.42" width="14.17" height="14.17"/><rect id="T3-34" class="cls-7" x="56.82" y="28.6" width="14.17" height="14.17"/><rect id="T2-26" class="cls-7" x="42.65" y="42.77" width="14.17" height="14.17"/><rect id="T1-25" class="cls-7" x="28.47" y="56.94" width="14.17" height="14.17"/><rect id="T4-30" class="cls-7" x="70.99" y=".25" width="14.17" height="14.17"/><rect id="T3-35" class="cls-7" x="56.82" y="14.42" width="14.17" height="14.17"/><rect id="T2-27" class="cls-7" x="42.65" y="28.6" width="14.17" height="14.17"/><rect id="T1-26" class="cls-7" x="28.47" y="42.77" width="14.17" height="14.17"/><rect id="T3-36" class="cls-7" x="184.64" y="184.37" width="14.17" height="14.17"/></g><g id="Text-4"><text class="cls-18" transform="translate(70.34 138.75)"><tspan x="0" y="0">t (query)</tspan></text><text class="cls-17" transform="translate(24.3 85.29) rotate(-90)"><tspan x="0" y="0">t (ref)</tspan></text><text class="cls-20" transform="translate(.66 170.12)"><tspan class="cls-25" x="0" y="0">(a) </tspan><tspan class="cls-23" x="27" y="0">Unwindowed </tspan></text><text class="cls-18" transform="translate(28.52 137.72)"><tspan x="0" y="0">1</tspan></text><text class="cls-21" transform="translate(25.02 122.2) rotate(-90)"><tspan x="0" y="0">1</tspan></text><text class="cls-18" transform="translate(155.94 137.72)"><tspan x="0" y="0">i</tspan></text><text class="cls-19" transform="translate(24.18 7.36) rotate(-90)"><tspan x="0" y="0">j</tspan></text></g><g id="Series"><path id="query-4" class="cls-12" d="M32.38,145.99c21.62-5.25,31.47-4.13,42.08-1.73,21.71,4.92,26.43,14.25,42.64,12.68,19.81-1.92,27.75-17.31,39.18-12.68"/><path id="reference-4" class="cls-5" d="M14.49,.62C12.46,7.13,.49,14.62,2.69,30.52c1.07,7.75,5.9,9.82,9.22,17.29,9.08,20.39-18.33,44.67-8.07,59.93,2.78,4.13,7.36,6.16,6.91,10.37-.46,4.33-5.86,7.35-10.37,9.22"/></g><g id="Plot_background"><polyline id="Axes-4" class="cls-15" points="155.43 127.81 28.47 127.34 28.47 .12"/></g><g id="Taken_path"><rect id="T8-20" class="cls-10" x="141.86" y=".25" width="14.17" height="14.17"/><rect id="T7-14" class="cls-10" x="127.69" y="14.42" width="14.17" height="14.17"/><rect id="T5-22" class="cls-10" x="99.34" y="42.77" width="14.17" height="14.17"/><rect id="T4-31" class="cls-10" x="85.17" y="56.94" width="14.17" height="14.17"/><rect id="T1-27" class="cls-10" x="28.47" y="113.64" width="14.17" height="14.17"/><rect id="T7-15" class="cls-10" x="127.69" y="28.6" width="14.17" height="14.17"/><rect id="T6-20" class="cls-10" x="113.51" y="42.77" width="14.17" height="14.17"/><rect id="T4-32" class="cls-10" x="70.99" y="56.94" width="14.17" height="14.17"/><rect id="T3-37" class="cls-10" x="56.82" y="71.12" width="14.17" height="14.17"/><rect id="T1-28" class="cls-10" x="28.47" y="99.46" width="14.17" height="14.17"/><rect id="T2-28" class="cls-10" x="42.65" y="71.12" width="14.17" height="14.17"/><rect id="T1-29" class="cls-10" x="28.47" y="85.29" width="14.17" height="14.17"/></g></g><g id="Guide"><path id="Reference" class="cls-5" d="M28.67,186.1c-.91,2.07-8.42,5.47-9.35,5.14-.96-.34-4.35-1.78-4.76-5.14"/><text class="cls-18" transform="translate(113.77 194.54)"><tspan x="0" y="0" xml:space="preserve"> Query series</tspan></text><path id="Query" class="cls-12" d="M113.74,186.14c-.92,2.07-8.44,5.48-9.37,5.15-.96-.34-4.36-1.79-4.77-5.15"/><text class="cls-18" transform="translate(198.81 194.54)"><tspan x="0" y="0" xml:space="preserve"> Possible path</tspan></text><text class="cls-18" transform="translate(298.02 194.54)"><tspan class="cls-24" x="0" y="0"> </tspan><tspan x="2.45" y="0">Alignment path</tspan></text><text class="cls-18" transform="translate(28.73 194.54)"><tspan x="0" y="0" xml:space="preserve"> Ref. series</tspan></text></g></svg>